<?xml version="1.0" encoding="UTF-8" standalone="no"?>
<svg
   width="170.05pt"
   height="170.05pt"
   viewBox="0 0 170.05 170.05"
   version="1.1"
   id="svg1"
   sodipodi:docname="spotify_icon_white.svg"
   inkscape:version="1.3.2 (091e20e, 2023-11-25, custom)"
   xmlns:inkscape="http://www.inkscape.org/namespaces/inkscape"
   xmlns:sodipodi="http://sodipodi.sourceforge.net/DTD/sodipodi-0.dtd"
   xmlns="http://www.w3.org/2000/svg"
   xmlns:svg="http://www.w3.org/2000/svg">
  <defs
     id="defs1" />
  <sodipodi:namedview
     id="namedview1"
     pagecolor="#505050"
     bordercolor="#eeeeee"
     borderopacity="1"
     inkscape:showpageshadow="0"
     inkscape:pageopacity="0"
     inkscape:pagecheckerboard="0"
     inkscape:deskcolor="#505050"
     inkscape:document-units="pt"
     inkscape:zoom="5.208762"
     inkscape:cx="113.36667"
     inkscape:cy="113.27068"
     inkscape:window-width="2558"
     inkscape:window-height="1368"
     inkscape:window-x="1273"
     inkscape:window-y="0"
     inkscape:window-maximized="0"
     inkscape:current-layer="svg1" />
  <path
     fill-rule="nonzero"
     fill="rgb(100%, 100%, 100%)"
     fill-opacity="1"
     d="M 134.5625 75.523438 C 107.566406 59.492188 63.042969 58.015625 37.273438 65.839844 C 33.132812 67.09375 28.757812 64.757812 27.503906 60.621094 C 26.25 56.480469 28.585938 52.105469 32.726562 50.847656 C 62.304688 41.867188 111.480469 43.601562 142.558594 62.050781 C 146.277344 64.261719 147.5 69.066406 145.292969 72.78125 C 143.085938 76.503906 138.273438 77.730469 134.5625 75.523438 Z M 133.679688 99.265625 C 131.785156 102.339844 127.765625 103.304688 124.695312 101.414062 C 102.191406 87.582031 67.875 83.574219 41.25 91.65625 C 37.796875 92.699219 34.152344 90.753906 33.101562 87.308594 C 32.0625 83.855469 34.007812 80.214844 37.457031 79.164062 C 67.871094 69.933594 105.683594 74.40625 131.53125 90.289062 C 134.597656 92.179688 135.566406 96.199219 133.679688 99.265625 Z M 123.429688 122.070312 C 121.925781 124.535156 118.714844 125.308594 116.253906 123.804688 C 96.589844 111.785156 71.835938 109.074219 42.6875 115.730469 C 39.878906 116.375 37.078125 114.613281 36.4375 111.804688 C 35.792969 108.996094 37.546875 106.199219 40.363281 105.558594 C 72.261719 98.265625 99.625 101.402344 121.699219 114.890625 C 124.160156 116.394531 124.933594 119.609375 123.429688 122.070312 Z M 85.027344 1.28125 C 38.777344 1.28125 1.28125 38.773438 1.28125 85.023438 C 1.28125 131.277344 38.777344 168.769531 85.027344 168.769531 C 131.277344 168.769531 168.769531 131.277344 168.769531 85.023438 C 168.769531 38.773438 131.277344 1.28125 85.027344 1.28125 "
     id="path1" />
</svg>
