<?xml version="1.0" encoding="UTF-8" standalone="no"?>
<!-- Created with Inkscape (http://www.inkscape.org/) -->

<svg
   width="48"
   height="48"
   viewBox="0 0 48 48"
   version="1.1"
   id="svg1"
   inkscape:version="1.3.2 (091e20e, 2023-11-25, custom)"
   sodipodi:docname="logo.svg"
   xmlns:inkscape="http://www.inkscape.org/namespaces/inkscape"
   xmlns:sodipodi="http://sodipodi.sourceforge.net/DTD/sodipodi-0.dtd"
   xmlns="http://www.w3.org/2000/svg"
   xmlns:svg="http://www.w3.org/2000/svg">
  <sodipodi:namedview
     id="namedview1"
     pagecolor="#505050"
     bordercolor="#eeeeee"
     borderopacity="1"
     inkscape:showpageshadow="0"
     inkscape:pageopacity="0"
     inkscape:pagecheckerboard="0"
     inkscape:deskcolor="#505050"
     inkscape:document-units="px"
     inkscape:zoom="16.605499"
     inkscape:cx="28.303877"
     inkscape:cy="18.006083"
     inkscape:window-width="2558"
     inkscape:window-height="1368"
     inkscape:window-x="1273"
     inkscape:window-y="0"
     inkscape:window-maximized="0"
     inkscape:current-layer="layer1" />
  <defs
     id="defs1">
    <linearGradient
       id="swatch18"
       inkscape:swatch="solid">
      <stop
         style="stop-color:#ffffff;stop-opacity:1;"
         offset="0"
         id="stop18" />
    </linearGradient>
    <linearGradient
       id="swatch17"
       inkscape:swatch="solid">
      <stop
         style="stop-color:#ffffff;stop-opacity:1;"
         offset="0"
         id="stop17" />
    </linearGradient>
  </defs>
  <g
     inkscape:label="Taso 1"
     inkscape:groupmode="layer"
     id="layer1">
    <path
       id="rect3"
       style="fill:#594ae2;stroke-width:1.243"
       d="M 0,0 H 48 V 48 H 0 Z" />
    <text
       xml:space="preserve"
       style="font-style:normal;font-variant:normal;font-weight:900;font-stretch:normal;font-size:40px;font-family:Lato;-inkscape-font-specification:'Lato Heavy';fill:#ffffff;fill-opacity:1;stroke:none;stroke-width:1.243;stroke-dasharray:none"
       x="7.3242221"
       y="22.142998"
       id="text21"><tspan
         sodipodi:role="line"
         id="tspan21" /></text>
    <path
       d="m 10.527992,12.576 q 0.352,0 0.592,0.032 0.24,0.032 0.432,0.128 0.192,0.08 0.368,0.24 0.176,0.16 0.4,0.432 l 11.072,14 q -0.064,-0.672 -0.096,-1.296 -0.032,-0.64 -0.032,-1.2 V 12.576 h 4.768 v 23.312 h -2.816 q -0.624,0 -1.056,-0.192 -0.432,-0.192 -0.832,-0.704 l -10.992,-13.888 q 0.048,0.608 0.08,1.2 0.032,0.576 0.032,1.088 V 35.888 H 7.6799916 V 12.576 h 2.8480004 z m 23.904016,8.784 v -3.52 h -3.36 v -2.176 h 3.36 v -3.552 h 2.528 v 3.552 h 3.36 v 2.176 h -3.36 v 3.52 z"
       id="text1"
       style="font-weight:900;font-size:32px;font-family:Lato;-inkscape-font-specification:'Lato Heavy';fill:#ffffff;stroke-width:1.243"
       aria-label="Nâº" />
  </g>
</svg>
