<?xml version="1.0" encoding="UTF-8" standalone="no"?>
<!-- Created with Inkscape (http://www.inkscape.org/) -->

<svg
   width="164.70406"
   height="24.304001"
   viewBox="0 0 164.70406 24.304001"
   version="1.1"
   id="svg1"
   inkscape:version="1.3.2 (091e20e, 2023-11-25, custom)"
   sodipodi:docname="text.svg"
   xmlns:inkscape="http://www.inkscape.org/namespaces/inkscape"
   xmlns:sodipodi="http://sodipodi.sourceforge.net/DTD/sodipodi-0.dtd"
   xmlns="http://www.w3.org/2000/svg"
   xmlns:svg="http://www.w3.org/2000/svg">
  <sodipodi:namedview
     id="namedview1"
     pagecolor="#505050"
     bordercolor="#eeeeee"
     borderopacity="1"
     inkscape:showpageshadow="0"
     inkscape:pageopacity="0"
     inkscape:pagecheckerboard="0"
     inkscape:deskcolor="#505050"
     inkscape:document-units="px"
     inkscape:zoom="5.8709305"
     inkscape:cx="68.643293"
     inkscape:cy="5.2802533"
     inkscape:window-width="2558"
     inkscape:window-height="1368"
     inkscape:window-x="1273"
     inkscape:window-y="0"
     inkscape:window-maximized="0"
     inkscape:current-layer="layer1" />
  <defs
     id="defs1">
    <linearGradient
       id="swatch18"
       inkscape:swatch="solid">
      <stop
         style="stop-color:#ffffff;stop-opacity:1;"
         offset="0"
         id="stop18" />
    </linearGradient>
    <linearGradient
       id="swatch17"
       inkscape:swatch="solid">
      <stop
         style="stop-color:#ffffff;stop-opacity:1;"
         offset="0"
         id="stop17" />
    </linearGradient>
  </defs>
  <g
     inkscape:label="Taso 1"
     inkscape:groupmode="layer"
     id="layer1"
     transform="translate(-13.647972,-11.84)">
    <text
       xml:space="preserve"
       style="font-style:normal;font-variant:normal;font-weight:900;font-stretch:normal;font-size:40px;font-family:Lato;-inkscape-font-specification:'Lato Heavy';fill:#ffffff;fill-opacity:1;stroke:none;stroke-width:1.243;stroke-dasharray:none"
       x="7.3242221"
       y="22.142998"
       id="text21"><tspan
         sodipodi:role="line"
         id="tspan21"
         x="7.3242221"
         y="22.142998" /></text>
    <path
       d="m 16.495972,12.576 q 0.352,0 0.592,0.032 0.24,0.032 0.432,0.128 0.192,0.08 0.368,0.24 0.176,0.16 0.4,0.432 l 11.072,14 q -0.064,-0.672 -0.096,-1.296 -0.032,-0.64 -0.032,-1.2 V 12.576 h 4.768 v 23.312 h -2.816 q -0.624,0 -1.056,-0.192 -0.432,-0.192 -0.832,-0.704 l -10.992,-13.888 q 0.048,0.608 0.08,1.2 0.032,0.576 0.032,1.088 v 12.496 h -4.768 V 12.576 h 2.848 z m 42.496017,11.648 q 0,2.528 -0.88,4.672 -0.864,2.128 -2.448,3.696 -1.584,1.552 -3.824,2.432 -2.224,0.864 -4.944,0.864 h -9.056 V 12.576 h 9.056 q 2.72,0 4.944,0.88 2.24,0.88 3.824,2.432 1.584,1.552 2.448,3.696 0.88,2.128 0.88,4.64 z m -5.536,0 q 0,-1.728 -0.448,-3.12 -0.448,-1.392 -1.296,-2.352 -0.832,-0.976 -2.048,-1.488 -1.216,-0.528 -2.768,-0.528 h -3.616 v 14.992 h 3.616 q 1.552,0 2.768,-0.512 1.216,-0.528 2.048,-1.488 0.848,-0.976 1.296,-2.368 0.448,-1.392 0.448,-3.136 z m 13.248018,-4.928 v 16.592 h -4.96 V 19.296 Z m 0.576,-4.544 q 0,0.592 -0.24,1.12 -0.24,0.512 -0.656,0.912 -0.416,0.384 -0.976,0.624 -0.544,0.224 -1.168,0.224 -0.608,0 -1.136,-0.224 -0.528,-0.24 -0.944,-0.624 -0.4,-0.4 -0.64,-0.912 -0.224,-0.528 -0.224,-1.12 0,-0.608 0.224,-1.136 0.24,-0.528 0.64,-0.928 0.416,-0.4 0.944,-0.624 0.528,-0.224 1.136,-0.224 0.624,0 1.168,0.224 0.56,0.224 0.976,0.624 0.416,0.4 0.656,0.928 0.24,0.528 0.24,1.136 z m 13.567995,8.176 q -0.192,0.304 -0.416,0.432 -0.208,0.128 -0.544,0.128 -0.352,0 -0.704,-0.144 -0.352,-0.16 -0.768,-0.336 -0.4,-0.176 -0.912,-0.32 -0.512,-0.16 -1.168,-0.16 -0.944,0 -1.456,0.368 -0.496,0.352 -0.496,0.992 0,0.464 0.32,0.768 0.336,0.304 0.88,0.544 0.544,0.224 1.232,0.432 0.688,0.208 1.408,0.464 0.72,0.256 1.408,0.608 0.688,0.336 1.232,0.848 0.544,0.496 0.864,1.216 0.336,0.72 0.336,1.728 0,1.232 -0.448,2.272 -0.448,1.04 -1.344,1.792 -0.88,0.752 -2.192,1.168 -1.296,0.416 -2.992,0.416 -0.848,0 -1.696,-0.16 -0.848,-0.16 -1.648,-0.432 -0.784,-0.272 -1.456,-0.64 -0.672,-0.384 -1.152,-0.816 l 1.152,-1.824 q 0.208,-0.32 0.496,-0.496 0.288,-0.192 0.752,-0.192 0.432,0 0.768,0.192 0.352,0.192 0.752,0.416 0.4,0.224 0.928,0.416 0.544,0.192 1.36,0.192 0.576,0 0.976,-0.112 0.4,-0.128 0.64,-0.336 0.24,-0.208 0.352,-0.464 0.112,-0.256 0.112,-0.528 0,-0.496 -0.336,-0.816 -0.336,-0.32 -0.88,-0.544 -0.544,-0.24 -1.248,-0.432 -0.688,-0.208 -1.408,-0.464 -0.72,-0.256 -1.424,-0.608 -0.688,-0.368 -1.232,-0.912 -0.544,-0.56 -0.88,-1.36 -0.336,-0.8 -0.336,-1.936 0,-1.056 0.4,-2 0.416,-0.96 1.232,-1.68 0.816,-0.72 2.048,-1.136 1.232,-0.432 2.88,-0.432 0.896,0 1.728,0.16 0.848,0.16 1.584,0.448 0.736,0.288 1.344,0.688 0.608,0.384 1.072,0.848 z m 15.904017,0.304 q -0.224,0.272 -0.432,0.432 -0.208,0.16 -0.592,0.16 -0.368,0 -0.672,-0.176 -0.288,-0.176 -0.656,-0.384 -0.368,-0.224 -0.864,-0.4 -0.496,-0.176 -1.232,-0.176 -0.912,0 -1.584,0.336 -0.656,0.336 -1.088,0.96 -0.432,0.624 -0.64,1.536 -0.208,0.896 -0.208,2.032 0,2.384 0.912,3.664 0.928,1.28 2.544,1.28 0.864,0 1.36,-0.208 0.512,-0.224 0.864,-0.48 0.352,-0.272 0.64,-0.496 0.304,-0.224 0.752,-0.224 0.592,0 0.896,0.432 l 1.44,1.776 q -0.768,0.88 -1.616,1.44 -0.848,0.544 -1.744,0.864 -0.88,0.304 -1.776,0.416 -0.896,0.128 -1.744,0.128 -1.52,0 -2.912,-0.576 -1.376,-0.576 -2.432,-1.664 -1.04,-1.104 -1.664,-2.704 -0.608,-1.6 -0.608,-3.648 0,-1.792 0.528,-3.344 0.544,-1.568 1.584,-2.704 1.056,-1.152 2.592,-1.808 1.552,-0.656 3.584,-0.656 1.952,0 3.424,0.624 1.472,0.624 2.656,1.824 z M 107.72802,19.04 q 1.888,0 3.44,0.592 1.552,0.592 2.656,1.696 1.12,1.104 1.728,2.688 0.624,1.568 0.624,3.536 0,1.984 -0.624,3.584 -0.608,1.584 -1.728,2.704 -1.104,1.104 -2.656,1.712 -1.552,0.592 -3.44,0.592 -1.904,0 -3.472,-0.592 -1.552,-0.608 -2.688,-1.712 -1.12,-1.12 -1.743999,-2.704 -0.608,-1.6 -0.608,-3.584 0,-1.968 0.608,-3.536 0.623999,-1.584 1.743999,-2.688 1.136,-1.104 2.688,-1.696 1.568,-0.592 3.472,-0.592 z m 0,13.424 q 1.712,0 2.512,-1.2 0.816,-1.216 0.816,-3.68 0,-2.464 -0.816,-3.664 -0.8,-1.2 -2.512,-1.2 -1.76,0 -2.576,1.2 -0.816,1.2 -0.816,3.664 0,2.464 0.816,3.68 0.816,1.2 2.576,1.2 z m 16.576,-4.368 v 7.792 h -5.408 V 12.576 h 8.224 q 2.464,0 4.224,0.592 1.776,0.576 2.912,1.6 1.152,1.024 1.696,2.416 0.544,1.392 0.544,3.008 0,1.744 -0.56,3.2 -0.56,1.456 -1.712,2.496 -1.152,1.04 -2.928,1.632 -1.76,0.576 -4.176,0.576 z m 0,-4.08 h 2.816 q 2.112,0 3.04,-1.008 0.928,-1.008 0.928,-2.816 0,-0.8 -0.24,-1.456 -0.24,-0.656 -0.736,-1.12 -0.48,-0.48 -1.232,-0.736 -0.736,-0.256 -1.76,-0.256 h -2.816 z m 20.12801,-12.08 v 23.952 h -4.96 V 11.936 Z m 8.64,7.36 v 10.528 q 0,1.232 0.56,1.904 0.56,0.672 1.648,0.672 0.816,0 1.52,-0.336 0.72,-0.336 1.392,-0.944 V 19.296 h 4.96 v 16.592 h -3.072 q -0.928,0 -1.216,-0.832 l -0.304,-0.96 q -0.48,0.464 -0.992,0.848 -0.512,0.368 -1.104,0.64 -0.576,0.256 -1.248,0.4 -0.672,0.16 -1.472,0.16 -1.36,0 -2.416,-0.464 -1.04,-0.48 -1.76,-1.328 -0.72,-0.848 -1.088,-2 -0.368,-1.152 -0.368,-2.528 V 19.296 Z m 24.064,3.632 q -0.192,0.304 -0.416,0.432 -0.208,0.128 -0.544,0.128 -0.352,0 -0.704,-0.144 -0.352,-0.16 -0.768,-0.336 -0.4,-0.176 -0.912,-0.32 -0.512,-0.16 -1.168,-0.16 -0.944,0 -1.456,0.368 -0.496,0.352 -0.496,0.992 0,0.464 0.32,0.768 0.336,0.304 0.88,0.544 0.544,0.224 1.232,0.432 0.688,0.208 1.408,0.464 0.72,0.256 1.408,0.608 0.688,0.336 1.232,0.848 0.544,0.496 0.864,1.216 0.336,0.72 0.336,1.728 0,1.232 -0.448,2.272 -0.448,1.04 -1.344,1.792 -0.88,0.752 -2.192,1.168 -1.296,0.416 -2.992,0.416 -0.848,0 -1.696,-0.16 -0.848,-0.16 -1.648,-0.432 -0.784,-0.272 -1.456,-0.64 -0.672,-0.384 -1.152,-0.816 l 1.152,-1.824 q 0.208,-0.32 0.496,-0.496 0.288,-0.192 0.752,-0.192 0.432,0 0.768,0.192 0.352,0.192 0.752,0.416 0.4,0.224 0.928,0.416 0.544,0.192 1.36,0.192 0.576,0 0.976,-0.112 0.4,-0.128 0.64,-0.336 0.24,-0.208 0.352,-0.464 0.112,-0.256 0.112,-0.528 0,-0.496 -0.336,-0.816 -0.336,-0.32 -0.88,-0.544 -0.544,-0.24 -1.248,-0.432 -0.688,-0.208 -1.408,-0.464 -0.72,-0.256 -1.424,-0.608 -0.688,-0.368 -1.232,-0.912 -0.544,-0.56 -0.88,-1.36 -0.336,-0.8 -0.336,-1.936 0,-1.056 0.4,-2 0.416,-0.96 1.232,-1.68 0.816,-0.72 2.048,-1.136 1.232,-0.432 2.88,-0.432 0.896,0 1.728,0.16 0.848,0.16 1.584,0.448 0.736,0.288 1.344,0.688 0.608,0.384 1.072,0.848 z"
       id="text1"
       style="font-weight:900;font-size:32px;font-family:Lato;-inkscape-font-specification:'Lato Heavy';fill:#594ae2;stroke-width:1.243"
       aria-label="NDiscoPlus" />
  </g>
</svg>
